<svg version="1.1" xmlns="http://www.w3.org/2000/svg" xmlns:xlink="http://www.w3.org/1999/xlink" width="940" height="1156"><defs/><g><g transform="translate(-430,-150) scale(1,1)"><path fill="#C0C0C0" stroke="none" d="M 475.5 730 C 475.5 719.5065888 484.0065888 711 494.5 711 C 504.9934112 711 513.5 719.5065888 513.5 730 C 513.5 740.4934112 504.9934112 749 494.5 749 C 484.0065888 749 475.5 740.4934112 475.5 730 Z" opacity="0.2"/></g><g transform="translate(-430,-150) scale(1,1)"><path fill="#ffffff" stroke="none" d="M 468.5 723 C 468.5 712.5065888 477.0065888 704 487.5 704 C 497.9934112 704 506.5 712.5065888 506.5 723 C 506.5 733.4934112 497.9934112 742 487.5 742 C 477.0065888 742 468.5 733.4934112 468.5 723 Z"/></g><g transform="translate(-430,-150) scale(1,1)"><path fill="none" stroke="#000000" d="M 468.5 723 C 468.5 712.5065888 477.0065888 704 487.5 704 C 497.9934112 704 506.5 712.5065888 506.5 723 C 506.5 733.4934112 497.9934112 742 487.5 742 C 477.0065888 742 468.5 733.4934112 468.5 723 Z" stroke-miterlimit="10"/></g><g transform="translate(-430,-150) scale(1,1)"><g><path fill="none" stroke="none"/><text fill="#000000" stroke="none" font-family="Arial" font-size="13px" font-style="normal" font-weight="bold" text-decoration="none" x="454.273193359375" y="761.5">API-CEGID</text></g></g><g transform="translate(-430,-150) scale(1,1)"><rect fill="#C0C0C0" stroke="none" x="567" y="431" width="152" height="57" opacity="0.2"/></g><g transform="translate(-430,-150) scale(1,1)"><rect fill="#ffffff" stroke="none" x="560" y="424" width="152" height="57"/></g><g transform="translate(-430,-150) scale(1,1)"><path fill="none" stroke="#000000" d="M 560 424 L 712 424 L 712 481 L 560 481 L 560 424 Z Z" stroke-miterlimit="10"/></g><g transform="translate(-430,-150) scale(1,1)"><path fill="none" stroke="#000000" d="M 560 462 L 712 462" stroke-miterlimit="10"/></g><g transform="translate(-430,-150) scale(1,1)"><path fill="none" stroke="#000000" d="M 560 472 L 712 472" stroke-miterlimit="10"/></g><g transform="translate(-430,-150) scale(1,1)"><g><path fill="none" stroke="none"/><text fill="#000000" stroke="none" font-family="Arial" font-size="13px" font-style="normal" font-weight="normal" text-decoration="none" x="605.6455078125" y="441.5">«Routeur»</text></g></g><g transform="translate(-430,-150) scale(1,1)"><g><path fill="none" stroke="none"/><text fill="#000000" stroke="none" font-family="Arial" font-size="13px" font-style="normal" font-weight="bold" text-decoration="none" x="614.69091796875" y="456.5">Articles</text></g></g><g transform="translate(-430,-150) scale(1,1)"><rect fill="#C0C0C0" stroke="none" x="615" y="951" width="152" height="57" opacity="0.2"/></g><g transform="translate(-430,-150) scale(1,1)"><rect fill="#ffffff" stroke="none" x="608" y="944" width="152" height="57"/></g><g transform="translate(-430,-150) scale(1,1)"><path fill="none" stroke="#000000" d="M 608 944 L 760 944 L 760 1001 L 608 1001 L 608 944 Z Z" stroke-miterlimit="10"/></g><g transform="translate(-430,-150) scale(1,1)"><path fill="none" stroke="#000000" d="M 608 982 L 760 982" stroke-miterlimit="10"/></g><g transform="translate(-430,-150) scale(1,1)"><path fill="none" stroke="#000000" d="M 608 992 L 760 992" stroke-miterlimit="10"/></g><g transform="translate(-430,-150) scale(1,1)"><g><path fill="none" stroke="none"/><text fill="#000000" stroke="none" font-family="Arial" font-size="13px" font-style="normal" font-weight="normal" text-decoration="none" x="653.6455078125" y="961.5">«Routeur»</text></g></g><g transform="translate(-430,-150) scale(1,1)"><g><path fill="none" stroke="none"/><text fill="#000000" stroke="none" font-family="Arial" font-size="13px" font-style="normal" font-weight="bold" text-decoration="none" x="668.470458984375" y="976.5">Tarifs</text></g></g><g transform="translate(-430,-150) scale(1,1)"><rect fill="#C0C0C0" stroke="none" x="887" y="167" width="110.50537109375" height="203" opacity="0.2"/></g><g transform="translate(-430,-150) scale(1,1)"><rect fill="#ffffff" stroke="none" x="880" y="160" width="110.50537109375" height="203"/></g><g transform="translate(-430,-150) scale(1,1)"><path fill="none" stroke="#000000" d="M 880 160 L 990.50537109375 160 L 990.50537109375 363 L 880 363 L 880 160 Z Z" stroke-miterlimit="10"/></g><g transform="translate(-430,-150) scale(1,1)"><path fill="none" stroke="#000000" d="M 880 198 L 990.50537109375 198" stroke-miterlimit="10"/></g><g transform="translate(-430,-150) scale(1,1)"><path fill="none" stroke="#000000" d="M 880 341 L 990.50537109375 341" stroke-miterlimit="10"/></g><g transform="translate(-430,-150) scale(1,1)"><g><path fill="none" stroke="none"/><text fill="#000000" stroke="none" font-family="Arial" font-size="13px" font-style="normal" font-weight="normal" text-decoration="none" x="901.641845703125" y="177.5">«EndPoint»</text></g></g><g transform="translate(-430,-150) scale(1,1)"><g><path fill="none" stroke="none"/><text fill="#000000" stroke="none" font-family="Arial" font-size="13px" font-style="normal" font-weight="bold" text-decoration="none" x="905.99951171875" y="192.5">listArticles</text></g></g><g transform="translate(-430,-150) scale(1,1)"><g><path fill="none" stroke="none"/><text fill="#000000" stroke="none" font-family="Arial" font-size="13px" font-style="normal" font-weight="normal" text-decoration="none" x="885" y="215.5">+GA_CodeArticle</text></g></g><g transform="translate(-430,-150) scale(1,1)"><g><path fill="none" stroke="none"/><text fill="#000000" stroke="none" font-family="Arial" font-size="13px" font-style="normal" font-weight="normal" text-decoration="none" x="885" y="230.5">+GA_FamilleNiv1</text></g></g><g transform="translate(-430,-150) scale(1,1)"><g><path fill="none" stroke="none"/><text fill="#000000" stroke="none" font-family="Arial" font-size="13px" font-style="normal" font-weight="normal" text-decoration="none" x="885" y="245.5">+GA_FamilleNiv2</text></g></g><g transform="translate(-430,-150) scale(1,1)"><g><path fill="none" stroke="none"/><text fill="#000000" stroke="none" font-family="Arial" font-size="13px" font-style="normal" font-weight="normal" text-decoration="none" x="885" y="260.5">+GA_Libelle</text></g></g><g transform="translate(-430,-150) scale(1,1)"><g><path fill="none" stroke="none"/><text fill="#000000" stroke="none" font-family="Arial" font-size="13px" font-style="normal" font-weight="normal" text-decoration="none" x="885" y="275.5">+GA_PVTTC</text></g></g><g transform="translate(-430,-150) scale(1,1)"><g><path fill="none" stroke="none"/><text fill="#000000" stroke="none" font-family="Arial" font-size="13px" font-style="normal" font-weight="normal" text-decoration="none" x="885" y="290.5">+GA_DatetModif</text></g></g><g transform="translate(-430,-150) scale(1,1)"><g><path fill="none" stroke="none"/><text fill="#000000" stroke="none" font-family="Arial" font-size="13px" font-style="normal" font-weight="normal" text-decoration="none" x="885" y="305.5">+Stock</text></g></g><g transform="translate(-430,-150) scale(1,1)"><g><path fill="none" stroke="none"/><text fill="#000000" stroke="none" font-family="Arial" font-size="13px" font-style="normal" font-weight="normal" text-decoration="none" x="885" y="320.5">+Total</text></g></g><g transform="translate(-430,-150) scale(1,1)"><g><path fill="none" stroke="none"/><text fill="#000000" stroke="none" font-family="Arial" font-size="13px" font-style="normal" font-weight="normal" text-decoration="none" x="885" y="335.5">+unArticle</text></g></g><g transform="translate(-430,-150) scale(1,1)"><g><path fill="none" stroke="none"/><text fill="#000000" stroke="none" font-family="Arial" font-size="13px" font-style="normal" font-weight="normal" text-decoration="none" x="885" y="358.5">+GET()</text></g></g><g transform="translate(-430,-150) scale(1,1)"><rect fill="#C0C0C0" stroke="none" x="1231" y="303" width="136" height="323" opacity="0.2"/></g><g transform="translate(-430,-150) scale(1,1)"><rect fill="#ffffff" stroke="none" x="1224" y="296" width="136" height="323"/></g><g transform="translate(-430,-150) scale(1,1)"><path fill="none" stroke="#000000" d="M 1224 296 L 1360 296 L 1360 619 L 1224 619 L 1224 296 Z Z" stroke-miterlimit="10"/></g><g transform="translate(-430,-150) scale(1,1)"><path fill="none" stroke="#000000" d="M 1224 334 L 1360 334" stroke-miterlimit="10"/></g><g transform="translate(-430,-150) scale(1,1)"><path fill="none" stroke="#000000" d="M 1224 597 L 1360 597" stroke-miterlimit="10"/></g><g transform="translate(-430,-150) scale(1,1)"><g><path fill="none" stroke="none"/><text fill="#000000" stroke="none" font-family="Arial" font-size="13px" font-style="normal" font-weight="normal" text-decoration="none" x="1258.38916015625" y="313.5">«EndPoint»</text></g></g><g transform="translate(-430,-150) scale(1,1)"><g><path fill="none" stroke="none"/><text fill="#000000" stroke="none" font-family="Arial" font-size="13px" font-style="normal" font-weight="bold" text-decoration="none" x="1252.266845703125" y="328.5">Details Article</text></g></g><g transform="translate(-430,-150) scale(1,1)"><g><path fill="none" stroke="none"/><text fill="#000000" stroke="none" font-family="Arial" font-size="13px" font-style="normal" font-weight="normal" text-decoration="none" x="1229" y="351.5">+GA_FamilleNiv1</text></g></g><g transform="translate(-430,-150) scale(1,1)"><g><path fill="none" stroke="none"/><text fill="#000000" stroke="none" font-family="Arial" font-size="13px" font-style="normal" font-weight="normal" text-decoration="none" x="1229" y="366.5">+GA_FamilleNiv2</text></g></g><g transform="translate(-430,-150) scale(1,1)"><g><path fill="none" stroke="none"/><text fill="#000000" stroke="none" font-family="Arial" font-size="13px" font-style="normal" font-weight="normal" text-decoration="none" x="1229" y="381.5">+GA_DateCreation</text></g></g><g transform="translate(-430,-150) scale(1,1)"><g><path fill="none" stroke="none"/><text fill="#000000" stroke="none" font-family="Arial" font-size="13px" font-style="normal" font-weight="normal" text-decoration="none" x="1229" y="396.5">+GA_Libelle</text></g></g><g transform="translate(-430,-150) scale(1,1)"><g><path fill="none" stroke="none"/><text fill="#000000" stroke="none" font-family="Arial" font-size="13px" font-style="normal" font-weight="normal" text-decoration="none" x="1229" y="411.5">+prixActuel</text></g></g><g transform="translate(-430,-150) scale(1,1)"><g><path fill="none" stroke="none"/><text fill="#000000" stroke="none" font-family="Arial" font-size="13px" font-style="normal" font-weight="normal" text-decoration="none" x="1229" y="426.5">+prixInitial</text></g></g><g transform="translate(-430,-150) scale(1,1)"><g><path fill="none" stroke="none"/><text fill="#000000" stroke="none" font-family="Arial" font-size="13px" font-style="normal" font-weight="normal" text-decoration="none" x="1229" y="441.5">+dernierTarif</text></g></g><g transform="translate(-430,-150) scale(1,1)"><g><path fill="none" stroke="none"/><text fill="#000000" stroke="none" font-family="Arial" font-size="13px" font-style="normal" font-weight="normal" text-decoration="none" x="1229" y="456.5">+descriptionTarif</text></g></g><g transform="translate(-430,-150) scale(1,1)"><g><path fill="none" stroke="none"/><text fill="#000000" stroke="none" font-family="Arial" font-size="13px" font-style="normal" font-weight="normal" text-decoration="none" x="1229" y="471.5">+GF_DateDebut</text></g></g><g transform="translate(-430,-150) scale(1,1)"><g><path fill="none" stroke="none"/><text fill="#000000" stroke="none" font-family="Arial" font-size="13px" font-style="normal" font-weight="normal" text-decoration="none" x="1229" y="486.5">+GF_DateFin</text></g></g><g transform="translate(-430,-150) scale(1,1)"><g><path fill="none" stroke="none"/><text fill="#000000" stroke="none" font-family="Arial" font-size="13px" font-style="normal" font-weight="normal" text-decoration="none" x="1229" y="501.5">+GFM_TypeTarif</text></g></g><g transform="translate(-430,-150) scale(1,1)"><g><path fill="none" stroke="none"/><text fill="#000000" stroke="none" font-family="Arial" font-size="13px" font-style="normal" font-weight="normal" text-decoration="none" x="1229" y="516.5">+GFM_PerTarif</text></g></g><g transform="translate(-430,-150) scale(1,1)"><g><path fill="none" stroke="none"/><text fill="#000000" stroke="none" font-family="Arial" font-size="13px" font-style="normal" font-weight="normal" text-decoration="none" x="1229" y="531.5">+GFM_NatureType</text></g></g><g transform="translate(-430,-150) scale(1,1)"><g><path fill="none" stroke="none"/><text fill="#000000" stroke="none" font-family="Arial" font-size="13px" font-style="normal" font-weight="normal" text-decoration="none" x="1229" y="546.5">+GA2_LibreArte</text></g></g><g transform="translate(-430,-150) scale(1,1)"><g><path fill="none" stroke="none"/><text fill="#000000" stroke="none" font-family="Arial" font-size="13px" font-style="normal" font-weight="normal" text-decoration="none" x="1229" y="561.5">+dimension</text></g></g><g transform="translate(-430,-150) scale(1,1)"><g><path fill="none" stroke="none"/><text fill="#000000" stroke="none" font-family="Arial" font-size="13px" font-style="normal" font-weight="normal" text-decoration="none" x="1229" y="576.5">+stockNet</text></g></g><g transform="translate(-430,-150) scale(1,1)"><g><path fill="none" stroke="none"/><text fill="#000000" stroke="none" font-family="Arial" font-size="13px" font-style="normal" font-weight="normal" text-decoration="none" x="1229" y="591.5">+Details_Stock</text></g></g><g transform="translate(-430,-150) scale(1,1)"><g><path fill="none" stroke="none"/><text fill="#000000" stroke="none" font-family="Arial" font-size="13px" font-style="normal" font-weight="normal" text-decoration="none" x="1229" y="614.5">+GET()</text></g></g><g transform="translate(-430,-150) scale(1,1)"><rect fill="#C0C0C0" stroke="none" x="1015" y="543" width="119.1953125" height="128" opacity="0.2"/></g><g transform="translate(-430,-150) scale(1,1)"><rect fill="#ffffff" stroke="none" x="1008" y="536" width="119.1953125" height="128"/></g><g transform="translate(-430,-150) scale(1,1)"><path fill="none" stroke="#000000" d="M 1008 536 L 1127.1953125 536 L 1127.1953125 664 L 1008 664 L 1008 536 Z Z" stroke-miterlimit="10"/></g><g transform="translate(-430,-150) scale(1,1)"><path fill="none" stroke="#000000" d="M 1008 574 L 1127.1953125 574" stroke-miterlimit="10"/></g><g transform="translate(-430,-150) scale(1,1)"><path fill="none" stroke="#000000" d="M 1008 642 L 1127.1953125 642" stroke-miterlimit="10"/></g><g transform="translate(-430,-150) scale(1,1)"><g><path fill="none" stroke="none"/><text fill="#000000" stroke="none" font-family="Arial" font-size="13px" font-style="normal" font-weight="normal" text-decoration="none" x="1033.98681640625" y="553.5">«EndPoint»</text></g></g><g transform="translate(-430,-150) scale(1,1)"><g><path fill="none" stroke="none"/><text fill="#000000" stroke="none" font-family="Arial" font-size="13px" font-style="normal" font-weight="bold" text-decoration="none" x="1032.917236328125" y="568.5">Detail Stock</text></g></g><g transform="translate(-430,-150) scale(1,1)"><g><path fill="none" stroke="none"/><text fill="#000000" stroke="none" font-family="Arial" font-size="13px" font-style="normal" font-weight="normal" text-decoration="none" x="1013" y="591.5">+GDE_Libelle</text></g></g><g transform="translate(-430,-150) scale(1,1)"><g><path fill="none" stroke="none"/><text fill="#000000" stroke="none" font-family="Arial" font-size="13px" font-style="normal" font-weight="normal" text-decoration="none" x="1013" y="606.5">+GQ_Depot</text></g></g><g transform="translate(-430,-150) scale(1,1)"><g><path fill="none" stroke="none"/><text fill="#000000" stroke="none" font-family="Arial" font-size="13px" font-style="normal" font-weight="normal" text-decoration="none" x="1013" y="621.5">+dimension</text></g></g><g transform="translate(-430,-150) scale(1,1)"><g><path fill="none" stroke="none"/><text fill="#000000" stroke="none" font-family="Arial" font-size="13px" font-style="normal" font-weight="normal" text-decoration="none" x="1013" y="636.5">+stockNet</text></g></g><g transform="translate(-430,-150) scale(1,1)"><g><path fill="none" stroke="none"/><text fill="#000000" stroke="none" font-family="Arial" font-size="13px" font-style="normal" font-weight="normal" text-decoration="none" x="1013" y="659.5">+GET()</text></g></g><g transform="translate(-430,-150) scale(1,1)"><rect fill="#C0C0C0" stroke="none" x="879" y="687" width="120.97900390625" height="98" opacity="0.2"/></g><g transform="translate(-430,-150) scale(1,1)"><rect fill="#ffffff" stroke="none" x="872" y="680" width="120.97900390625" height="98"/></g><g transform="translate(-430,-150) scale(1,1)"><path fill="none" stroke="#000000" d="M 872 680 L 992.97900390625 680 L 992.97900390625 778 L 872 778 L 872 680 Z Z" stroke-miterlimit="10"/></g><g transform="translate(-430,-150) scale(1,1)"><path fill="none" stroke="#000000" d="M 872 718 L 992.97900390625 718" stroke-miterlimit="10"/></g><g transform="translate(-430,-150) scale(1,1)"><path fill="none" stroke="#000000" d="M 872 756 L 992.97900390625 756" stroke-miterlimit="10"/></g><g transform="translate(-430,-150) scale(1,1)"><g><path fill="none" stroke="none"/><text fill="#000000" stroke="none" font-family="Arial" font-size="13px" font-style="normal" font-weight="normal" text-decoration="none" x="898.878662109375" y="697.5">«EndPoint»</text></g></g><g transform="translate(-430,-150) scale(1,1)"><g><path fill="none" stroke="none"/><text fill="#000000" stroke="none" font-family="Arial" font-size="13px" font-style="normal" font-weight="bold" text-decoration="none" x="881.549560546875" y="712.5">articlesDisponible</text></g></g><g transform="translate(-430,-150) scale(1,1)"><g><path fill="none" stroke="none"/><text fill="#000000" stroke="none" font-family="Arial" font-size="13px" font-style="normal" font-weight="normal" text-decoration="none" x="877" y="735.5">+GA_CodeArticle</text></g></g><g transform="translate(-430,-150) scale(1,1)"><g><path fill="none" stroke="none"/><text fill="#000000" stroke="none" font-family="Arial" font-size="13px" font-style="normal" font-weight="normal" text-decoration="none" x="877" y="750.5">+stockNet</text></g></g><g transform="translate(-430,-150) scale(1,1)"><g><path fill="none" stroke="none"/><text fill="#000000" stroke="none" font-family="Arial" font-size="13px" font-style="normal" font-weight="normal" text-decoration="none" x="877" y="773.5">+POST()</text></g></g><g transform="translate(-430,-150) scale(1,1)"><rect fill="#C0C0C0" stroke="none" x="879" y="855" width="109.80078125" height="113" opacity="0.2"/></g><g transform="translate(-430,-150) scale(1,1)"><rect fill="#ffffff" stroke="none" x="872" y="848" width="109.80078125" height="113"/></g><g transform="translate(-430,-150) scale(1,1)"><path fill="none" stroke="#000000" d="M 872 848 L 981.80078125 848 L 981.80078125 961 L 872 961 L 872 848 Z Z" stroke-miterlimit="10"/></g><g transform="translate(-430,-150) scale(1,1)"><path fill="none" stroke="#000000" d="M 872 886 L 981.80078125 886" stroke-miterlimit="10"/></g><g transform="translate(-430,-150) scale(1,1)"><path fill="none" stroke="#000000" d="M 872 939 L 981.80078125 939" stroke-miterlimit="10"/></g><g transform="translate(-430,-150) scale(1,1)"><g><path fill="none" stroke="none"/><text fill="#000000" stroke="none" font-family="Arial" font-size="13px" font-style="normal" font-weight="normal" text-decoration="none" x="893.28955078125" y="865.5">«EndPoint»</text></g></g><g transform="translate(-430,-150) scale(1,1)"><g><path fill="none" stroke="none"/><text fill="#000000" stroke="none" font-family="Arial" font-size="13px" font-style="normal" font-weight="bold" text-decoration="none" x="894.755859375" y="880.5">tarifsArticle</text></g></g><g transform="translate(-430,-150) scale(1,1)"><g><path fill="none" stroke="none"/><text fill="#000000" stroke="none" font-family="Arial" font-size="13px" font-style="normal" font-weight="normal" text-decoration="none" x="877" y="903.5">+GA_CodeArticle</text></g></g><g transform="translate(-430,-150) scale(1,1)"><g><path fill="none" stroke="none"/><text fill="#000000" stroke="none" font-family="Arial" font-size="13px" font-style="normal" font-weight="normal" text-decoration="none" x="877" y="918.5">+prixActuel</text></g></g><g transform="translate(-430,-150) scale(1,1)"><g><path fill="none" stroke="none"/><text fill="#000000" stroke="none" font-family="Arial" font-size="13px" font-style="normal" font-weight="normal" text-decoration="none" x="877" y="933.5">+GF_DateMoif</text></g></g><g transform="translate(-430,-150) scale(1,1)"><g><path fill="none" stroke="none"/><text fill="#000000" stroke="none" font-family="Arial" font-size="13px" font-style="normal" font-weight="normal" text-decoration="none" x="877" y="956.5">+POST()</text></g></g><g transform="translate(-430,-150) scale(1,1)"><rect fill="#C0C0C0" stroke="none" x="871" y="1055" width="119.90625" height="248" opacity="0.2"/></g><g transform="translate(-430,-150) scale(1,1)"><rect fill="#ffffff" stroke="none" x="864" y="1048" width="119.90625" height="248"/></g><g transform="translate(-430,-150) scale(1,1)"><path fill="none" stroke="#000000" d="M 864 1048 L 983.90625 1048 L 983.90625 1296 L 864 1296 L 864 1048 Z Z" stroke-miterlimit="10"/></g><g transform="translate(-430,-150) scale(1,1)"><path fill="none" stroke="#000000" d="M 864 1086 L 983.90625 1086" stroke-miterlimit="10"/></g><g transform="translate(-430,-150) scale(1,1)"><path fill="none" stroke="#000000" d="M 864 1274 L 983.90625 1274" stroke-miterlimit="10"/></g><g transform="translate(-430,-150) scale(1,1)"><g><path fill="none" stroke="none"/><text fill="#000000" stroke="none" font-family="Arial" font-size="13px" font-style="normal" font-weight="normal" text-decoration="none" x="890.34228515625" y="1065.5">«EndPoint»</text></g></g><g transform="translate(-430,-150) scale(1,1)"><g><path fill="none" stroke="none"/><text fill="#000000" stroke="none" font-family="Arial" font-size="13px" font-style="normal" font-weight="bold" text-decoration="none" x="877.35498046875" y="1080.5">Historique Tarifs</text></g></g><g transform="translate(-430,-150) scale(1,1)"><g><path fill="none" stroke="none"/><text fill="#000000" stroke="none" font-family="Arial" font-size="13px" font-style="normal" font-weight="normal" text-decoration="none" x="869" y="1103.5">+GA_CodeArticle</text></g></g><g transform="translate(-430,-150) scale(1,1)"><g><path fill="none" stroke="none"/><text fill="#000000" stroke="none" font-family="Arial" font-size="13px" font-style="normal" font-weight="normal" text-decoration="none" x="869" y="1118.5">+GA_Libelle</text></g></g><g transform="translate(-430,-150) scale(1,1)"><g><path fill="none" stroke="none"/><text fill="#000000" stroke="none" font-family="Arial" font-size="13px" font-style="normal" font-weight="normal" text-decoration="none" x="869" y="1133.5">+prixActuel</text></g></g><g transform="translate(-430,-150) scale(1,1)"><g><path fill="none" stroke="none"/><text fill="#000000" stroke="none" font-family="Arial" font-size="13px" font-style="normal" font-weight="normal" text-decoration="none" x="869" y="1148.5">+prixInitial</text></g></g><g transform="translate(-430,-150) scale(1,1)"><g><path fill="none" stroke="none"/><text fill="#000000" stroke="none" font-family="Arial" font-size="13px" font-style="normal" font-weight="normal" text-decoration="none" x="869" y="1163.5">+GF_DateModif</text></g></g><g transform="translate(-430,-150) scale(1,1)"><g><path fill="none" stroke="none"/><text fill="#000000" stroke="none" font-family="Arial" font-size="13px" font-style="normal" font-weight="normal" text-decoration="none" x="869" y="1178.5">+descriptionTarif</text></g></g><g transform="translate(-430,-150) scale(1,1)"><g><path fill="none" stroke="none"/><text fill="#000000" stroke="none" font-family="Arial" font-size="13px" font-style="normal" font-weight="normal" text-decoration="none" x="869" y="1193.5">+GF_DateDebut</text></g></g><g transform="translate(-430,-150) scale(1,1)"><g><path fill="none" stroke="none"/><text fill="#000000" stroke="none" font-family="Arial" font-size="13px" font-style="normal" font-weight="normal" text-decoration="none" x="869" y="1208.5">+GF_DateFin</text></g></g><g transform="translate(-430,-150) scale(1,1)"><g><path fill="none" stroke="none"/><text fill="#000000" stroke="none" font-family="Arial" font-size="13px" font-style="normal" font-weight="normal" text-decoration="none" x="869" y="1223.5">+GFM_TypeTarif</text></g></g><g transform="translate(-430,-150) scale(1,1)"><g><path fill="none" stroke="none"/><text fill="#000000" stroke="none" font-family="Arial" font-size="13px" font-style="normal" font-weight="normal" text-decoration="none" x="869" y="1238.5">+GFM_PerTarif</text></g></g><g transform="translate(-430,-150) scale(1,1)"><g><path fill="none" stroke="none"/><text fill="#000000" stroke="none" font-family="Arial" font-size="13px" font-style="normal" font-weight="normal" text-decoration="none" x="869" y="1253.5">+GFM_NatureType</text></g></g><g transform="translate(-430,-150) scale(1,1)"><g><path fill="none" stroke="none"/><text fill="#000000" stroke="none" font-family="Arial" font-size="13px" font-style="normal" font-weight="normal" text-decoration="none" x="869" y="1268.5">+GA2_LibreArte</text></g></g><g transform="translate(-430,-150) scale(1,1)"><g><path fill="none" stroke="none"/><text fill="#000000" stroke="none" font-family="Arial" font-size="13px" font-style="normal" font-weight="normal" text-decoration="none" x="869" y="1291.5">+GET()</text></g></g><g transform="translate(-430,-150) scale(1,1)"><path fill="none" stroke="#000000" d="M 488 704 L 488 448 L 560 448" stroke-miterlimit="10" stroke-dasharray="3"/></g><g transform="translate(-430,-150) scale(1,1)"><path fill="none" stroke="#000000" d="M 549.8373251423759 452.209517756016 L 560 448 L 549.8373251423758 443.790482243984" stroke-miterlimit="10"/></g><g transform="translate(-430,-150) scale(1,1)"><g><path fill="none" stroke="none"/><text fill="#000000" stroke="none" font-family="Arial" font-size="13px" font-style="normal" font-weight="normal" text-decoration="none" x="458.5" y="424.5">« /article »</text></g></g><g transform="translate(-430,-150) scale(1,1)"><path fill="none" stroke="#000000" d="M 488 767 L 488 972 L 608 972" stroke-miterlimit="10" stroke-dasharray="3"/></g><g transform="translate(-430,-150) scale(1,1)"><path fill="none" stroke="#000000" d="M 597.8373251423759 976.209517756016 L 608 972 L 597.8373251423758 967.790482243984" stroke-miterlimit="10"/></g><g transform="translate(-430,-150) scale(1,1)"><g><path fill="none" stroke="none"/><text fill="#000000" stroke="none" font-family="Arial" font-size="13px" font-style="normal" font-weight="normal" text-decoration="none" x="503.5" y="995.5">« /tarifs »</text></g></g><g transform="translate(-430,-150) scale(1,1)"><path fill="none" stroke="#000000" d="M 672 424 L 672 264 L 880 264" stroke-miterlimit="10" stroke-dasharray="3"/></g><g transform="translate(-430,-150) scale(1,1)"><path fill="none" stroke="#000000" d="M 869.8373251423759 268.209517756016 L 880 264 L 869.8373251423758 259.790482243984" stroke-miterlimit="10"/></g><g transform="translate(-430,-150) scale(1,1)"><g><path fill="none" stroke="none"/><text fill="#000000" stroke="none" font-family="Arial" font-size="13px" font-style="normal" font-weight="normal" text-decoration="none" x="783.5" y="240.5">« / »</text></g></g><g transform="translate(-430,-150) scale(1,1)"><path fill="none" stroke="#000000" d="M 713 453 L 1223 456" stroke-miterlimit="10" stroke-dasharray="3"/></g><g transform="translate(-430,-150) scale(1,1)"><path fill="none" stroke="#000000" d="M 1212.8127395218794 460.1496655227769 L 1223 456 L 1212.8622624033958 451.7307756650188" stroke-miterlimit="10"/></g><g transform="translate(-430,-150) scale(1,1)"><g><path fill="none" stroke="none"/><text fill="#000000" stroke="none" font-family="Arial" font-size="13px" font-style="normal" font-weight="normal" text-decoration="none" x="934.5" y="430.5">« /{article] »</text></g></g><g transform="translate(-430,-150) scale(1,1)"><path fill="none" stroke="#000000" d="M 688 481 L 688 579 L 1008 579" stroke-miterlimit="10" stroke-dasharray="3"/></g><g transform="translate(-430,-150) scale(1,1)"><path fill="none" stroke="#000000" d="M 997.8373251423759 583.209517756016 L 1008 579 L 997.8373251423758 574.790482243984" stroke-miterlimit="10"/></g><g transform="translate(-430,-150) scale(1,1)"><g><path fill="none" stroke="none"/><text fill="#000000" stroke="none" font-family="Arial" font-size="13px" font-style="normal" font-weight="normal" text-decoration="none" x="782.5" y="556.5">« /detail_stock/{article} »</text></g></g><g transform="translate(-430,-150) scale(1,1)"><path fill="none" stroke="#000000" d="M 664 481 L 664 729 L 872 729" stroke-miterlimit="10" stroke-dasharray="3"/></g><g transform="translate(-430,-150) scale(1,1)"><path fill="none" stroke="#000000" d="M 861.8373251423759 733.209517756016 L 872 729 L 861.8373251423758 724.790482243984" stroke-miterlimit="10"/></g><g transform="translate(-430,-150) scale(1,1)"><g><path fill="none" stroke="none"/><text fill="#000000" stroke="none" font-family="Arial" font-size="13px" font-style="normal" font-weight="normal" text-decoration="none" x="711.5" y="705.5">« /disponible »</text></g></g><g transform="translate(-430,-150) scale(1,1)"><path fill="none" stroke="#000000" d="M 761 950 L 871 919" stroke-miterlimit="10" stroke-dasharray="3"/></g><g transform="translate(-430,-150) scale(1,1)"><path fill="none" stroke="#000000" d="M 862.3601828921088 925.8083449047614 L 871 919 L 860.076499883985 917.7049535856122" stroke-miterlimit="10"/></g><g transform="translate(-430,-150) scale(1,1)"><g><path fill="none" stroke="none"/><text fill="#000000" stroke="none" font-family="Arial" font-size="13px" font-style="normal" font-weight="normal" text-decoration="none" x="775.5" y="911.5">« /{article}»</text></g></g><g transform="translate(-430,-150) scale(1,1)"><path fill="none" stroke="#000000" d="M 720 1002 L 863 1122" stroke-miterlimit="10" stroke-dasharray="3"/></g><g transform="translate(-430,-150) scale(1,1)"><path fill="none" stroke="#000000" d="M 852.5092323542714 1118.691859403935 L 863 1122 L 857.9211157064489 1112.2426984092567" stroke-miterlimit="10"/></g><g transform="translate(-430,-150) scale(1,1)"><g><path fill="none" stroke="none"/><text fill="#000000" stroke="none" font-family="Arial" font-size="13px" font-style="normal" font-weight="normal" text-decoration="none" x="800.5" y="1044.5">«/»</text></g></g><g transform="translate(-430,-150) scale(1,1)"><path fill="none" stroke="#000000" d="M 935 363 L 935 408 L 1224 408" stroke-miterlimit="10"/></g><g transform="translate(-430,-150) scale(1,1)"><path fill="none" stroke="#000000" d="M 1213.837325142376 412.209517756016 L 1224 408 L 1213.837325142376 403.790482243984" stroke-miterlimit="10"/></g><g transform="translate(-430,-150) scale(1,1)"><path fill="none" stroke="#000000" d="M 1224 561 L 1127 561" stroke-miterlimit="10"/></g><g transform="translate(-430,-150) scale(1,1)"><path fill="none" stroke="#000000" d="M 1137.162674857624 556.790482243984 L 1127 561 L 1137.162674857624 565.209517756016" stroke-miterlimit="10"/></g></g></svg>