<svg version="1.1" xmlns="http://www.w3.org/2000/svg" xmlns:xlink="http://www.w3.org/1999/xlink" width="1116" height="948"><defs/><g><text fill="#eeeeee" stroke="none" font-family="Arial" font-size="24px" font-style="normal" font-weight="normal" text-decoration="none" x="0" y="0"></text><text fill="#eeeeee" stroke="none" font-family="Arial" font-size="24px" font-style="normal" font-weight="normal" text-decoration="none" x="0" y="30"></text><text fill="#eeeeee" stroke="none" font-family="Arial" font-size="24px" font-style="normal" font-weight="normal" text-decoration="none" x="0" y="60"></text><text fill="#eeeeee" stroke="none" font-family="Arial" font-size="24px" font-style="normal" font-weight="normal" text-decoration="none" x="0" y="90"></text><text fill="#eeeeee" stroke="none" font-family="Arial" font-size="24px" font-style="normal" font-weight="normal" text-decoration="none" x="0" y="120"></text><text fill="#eeeeee" stroke="none" font-family="Arial" font-size="24px" font-style="normal" font-weight="normal" text-decoration="none" x="0" y="150"></text><text fill="#eeeeee" stroke="none" font-family="Arial" font-size="24px" font-style="normal" font-weight="normal" text-decoration="none" x="0" y="180"></text><text fill="#eeeeee" stroke="none" font-family="Arial" font-size="24px" font-style="normal" font-weight="normal" text-decoration="none" x="0" y="210"></text><text fill="#eeeeee" stroke="none" font-family="Arial" font-size="24px" font-style="normal" font-weight="normal" text-decoration="none" x="0" y="240"></text><text fill="#eeeeee" stroke="none" font-family="Arial" font-size="24px" font-style="normal" font-weight="normal" text-decoration="none" x="0" y="270"></text><text fill="#eeeeee" stroke="none" font-family="Arial" font-size="24px" font-style="normal" font-weight="normal" text-decoration="none" x="0" y="300"></text><text fill="#eeeeee" stroke="none" font-family="Arial" font-size="24px" font-style="normal" font-weight="normal" text-decoration="none" x="0" y="330"></text><text fill="#eeeeee" stroke="none" font-family="Arial" font-size="24px" font-style="normal" font-weight="normal" text-decoration="none" x="0" y="360"></text><text fill="#eeeeee" stroke="none" font-family="Arial" font-size="24px" font-style="normal" font-weight="normal" text-decoration="none" x="0" y="390"></text><text fill="#eeeeee" stroke="none" font-family="Arial" font-size="24px" font-style="normal" font-weight="normal" text-decoration="none" x="0" y="420"></text><text fill="#eeeeee" stroke="none" font-family="Arial" font-size="24px" font-style="normal" font-weight="normal" text-decoration="none" x="0" y="450"></text><text fill="#eeeeee" stroke="none" font-family="Arial" font-size="24px" font-style="normal" font-weight="normal" text-decoration="none" x="0" y="480"></text><text fill="#eeeeee" stroke="none" font-family="Arial" font-size="24px" font-style="normal" font-weight="normal" text-decoration="none" x="0" y="510"></text><text fill="#eeeeee" stroke="none" font-family="Arial" font-size="24px" font-style="normal" font-weight="normal" text-decoration="none" x="0" y="540"></text><text fill="#eeeeee" stroke="none" font-family="Arial" font-size="24px" font-style="normal" font-weight="normal" text-decoration="none" x="0" y="570"></text><text fill="#eeeeee" stroke="none" font-family="Arial" font-size="24px" font-style="normal" font-weight="normal" text-decoration="none" x="0" y="600"></text><text fill="#eeeeee" stroke="none" font-family="Arial" font-size="24px" font-style="normal" font-weight="normal" text-decoration="none" x="0" y="630"></text><text fill="#eeeeee" stroke="none" font-family="Arial" font-size="24px" font-style="normal" font-weight="normal" text-decoration="none" x="0" y="660"></text><text fill="#eeeeee" stroke="none" font-family="Arial" font-size="24px" font-style="normal" font-weight="normal" text-decoration="none" x="0" y="690"></text><text fill="#eeeeee" stroke="none" font-family="Arial" font-size="24px" font-style="normal" font-weight="normal" text-decoration="none" x="0" y="720"></text><text fill="#eeeeee" stroke="none" font-family="Arial" font-size="24px" font-style="normal" font-weight="normal" text-decoration="none" x="0" y="750"></text><text fill="#eeeeee" stroke="none" font-family="Arial" font-size="24px" font-style="normal" font-weight="normal" text-decoration="none" x="0" y="780"></text><text fill="#eeeeee" stroke="none" font-family="Arial" font-size="24px" font-style="normal" font-weight="normal" text-decoration="none" x="0" y="810"></text><text fill="#eeeeee" stroke="none" font-family="Arial" font-size="24px" font-style="normal" font-weight="normal" text-decoration="none" x="0" y="840"></text><text fill="#eeeeee" stroke="none" font-family="Arial" font-size="24px" font-style="normal" font-weight="normal" text-decoration="none" x="0" y="870"></text><text fill="#eeeeee" stroke="none" font-family="Arial" font-size="24px" font-style="normal" font-weight="normal" text-decoration="none" x="0" y="900"></text><text fill="#eeeeee" stroke="none" font-family="Arial" font-size="24px" font-style="normal" font-weight="normal" text-decoration="none" x="0" y="930"></text><text fill="#eeeeee" stroke="none" font-family="Arial" font-size="24px" font-style="normal" font-weight="normal" text-decoration="none" x="200" y="0"></text><text fill="#eeeeee" stroke="none" font-family="Arial" font-size="24px" font-style="normal" font-weight="normal" text-decoration="none" x="200" y="30"></text><text fill="#eeeeee" stroke="none" font-family="Arial" font-size="24px" font-style="normal" font-weight="normal" text-decoration="none" x="200" y="60"></text><text fill="#eeeeee" stroke="none" font-family="Arial" font-size="24px" font-style="normal" font-weight="normal" text-decoration="none" x="200" y="90"></text><text fill="#eeeeee" stroke="none" font-family="Arial" font-size="24px" font-style="normal" font-weight="normal" text-decoration="none" x="200" y="120"></text><text fill="#eeeeee" stroke="none" font-family="Arial" font-size="24px" font-style="normal" font-weight="normal" text-decoration="none" x="200" y="150"></text><text fill="#eeeeee" stroke="none" font-family="Arial" font-size="24px" font-style="normal" font-weight="normal" text-decoration="none" x="200" y="180"></text><text fill="#eeeeee" stroke="none" font-family="Arial" font-size="24px" font-style="normal" font-weight="normal" text-decoration="none" x="200" y="210"></text><text fill="#eeeeee" stroke="none" font-family="Arial" font-size="24px" font-style="normal" font-weight="normal" text-decoration="none" x="200" y="240"></text><text fill="#eeeeee" stroke="none" font-family="Arial" font-size="24px" font-style="normal" font-weight="normal" text-decoration="none" x="200" y="270"></text><text fill="#eeeeee" stroke="none" font-family="Arial" font-size="24px" font-style="normal" font-weight="normal" text-decoration="none" x="200" y="300"></text><text fill="#eeeeee" stroke="none" font-family="Arial" font-size="24px" font-style="normal" font-weight="normal" text-decoration="none" x="200" y="330"></text><text fill="#eeeeee" stroke="none" font-family="Arial" font-size="24px" font-style="normal" font-weight="normal" text-decoration="none" x="200" y="360"></text><text fill="#eeeeee" stroke="none" font-family="Arial" font-size="24px" font-style="normal" font-weight="normal" text-decoration="none" x="200" y="390"></text><text fill="#eeeeee" stroke="none" font-family="Arial" font-size="24px" font-style="normal" font-weight="normal" text-decoration="none" x="200" y="420"></text><text fill="#eeeeee" stroke="none" font-family="Arial" font-size="24px" font-style="normal" font-weight="normal" text-decoration="none" x="200" y="450"></text><text fill="#eeeeee" stroke="none" font-family="Arial" font-size="24px" font-style="normal" font-weight="normal" text-decoration="none" x="200" y="480"></text><text fill="#eeeeee" stroke="none" font-family="Arial" font-size="24px" font-style="normal" font-weight="normal" text-decoration="none" x="200" y="510"></text><text fill="#eeeeee" stroke="none" font-family="Arial" font-size="24px" font-style="normal" font-weight="normal" text-decoration="none" x="200" y="540"></text><text fill="#eeeeee" stroke="none" font-family="Arial" font-size="24px" font-style="normal" font-weight="normal" text-decoration="none" x="200" y="570"></text><text fill="#eeeeee" stroke="none" font-family="Arial" font-size="24px" font-style="normal" font-weight="normal" text-decoration="none" x="200" y="600"></text><text fill="#eeeeee" stroke="none" font-family="Arial" font-size="24px" font-style="normal" font-weight="normal" text-decoration="none" x="200" y="630"></text><text fill="#eeeeee" stroke="none" font-family="Arial" font-size="24px" font-style="normal" font-weight="normal" text-decoration="none" x="200" y="660"></text><text fill="#eeeeee" stroke="none" font-family="Arial" font-size="24px" font-style="normal" font-weight="normal" text-decoration="none" x="200" y="690"></text><text fill="#eeeeee" stroke="none" font-family="Arial" font-size="24px" font-style="normal" font-weight="normal" text-decoration="none" x="200" y="720"></text><text fill="#eeeeee" stroke="none" font-family="Arial" font-size="24px" font-style="normal" font-weight="normal" text-decoration="none" x="200" y="750"></text><text fill="#eeeeee" stroke="none" font-family="Arial" font-size="24px" font-style="normal" font-weight="normal" text-decoration="none" x="200" y="780"></text><text fill="#eeeeee" stroke="none" font-family="Arial" font-size="24px" font-style="normal" font-weight="normal" text-decoration="none" x="200" y="810"></text><text fill="#eeeeee" stroke="none" font-family="Arial" font-size="24px" font-style="normal" font-weight="normal" text-decoration="none" x="200" y="840"></text><text fill="#eeeeee" stroke="none" font-family="Arial" font-size="24px" font-style="normal" font-weight="normal" text-decoration="none" x="200" y="870"></text><text fill="#eeeeee" stroke="none" font-family="Arial" font-size="24px" font-style="normal" font-weight="normal" text-decoration="none" x="200" y="900"></text><text fill="#eeeeee" stroke="none" font-family="Arial" font-size="24px" font-style="normal" font-weight="normal" text-decoration="none" x="200" y="930"></text><text fill="#eeeeee" stroke="none" font-family="Arial" font-size="24px" font-style="normal" font-weight="normal" text-decoration="none" x="400" y="0"></text><text fill="#eeeeee" stroke="none" font-family="Arial" font-size="24px" font-style="normal" font-weight="normal" text-decoration="none" x="400" y="30"></text><text fill="#eeeeee" stroke="none" font-family="Arial" font-size="24px" font-style="normal" font-weight="normal" text-decoration="none" x="400" y="60"></text><text fill="#eeeeee" stroke="none" font-family="Arial" font-size="24px" font-style="normal" font-weight="normal" text-decoration="none" x="400" y="90"></text><text fill="#eeeeee" stroke="none" font-family="Arial" font-size="24px" font-style="normal" font-weight="normal" text-decoration="none" x="400" y="120"></text><text fill="#eeeeee" stroke="none" font-family="Arial" font-size="24px" font-style="normal" font-weight="normal" text-decoration="none" x="400" y="150"></text><text fill="#eeeeee" stroke="none" font-family="Arial" font-size="24px" font-style="normal" font-weight="normal" text-decoration="none" x="400" y="180"></text><text fill="#eeeeee" stroke="none" font-family="Arial" font-size="24px" font-style="normal" font-weight="normal" text-decoration="none" x="400" y="210"></text><text fill="#eeeeee" stroke="none" font-family="Arial" font-size="24px" font-style="normal" font-weight="normal" text-decoration="none" x="400" y="240"></text><text fill="#eeeeee" stroke="none" font-family="Arial" font-size="24px" font-style="normal" font-weight="normal" text-decoration="none" x="400" y="270"></text><text fill="#eeeeee" stroke="none" font-family="Arial" font-size="24px" font-style="normal" font-weight="normal" text-decoration="none" x="400" y="300"></text><text fill="#eeeeee" stroke="none" font-family="Arial" font-size="24px" font-style="normal" font-weight="normal" text-decoration="none" x="400" y="330"></text><text fill="#eeeeee" stroke="none" font-family="Arial" font-size="24px" font-style="normal" font-weight="normal" text-decoration="none" x="400" y="360"></text><text fill="#eeeeee" stroke="none" font-family="Arial" font-size="24px" font-style="normal" font-weight="normal" text-decoration="none" x="400" y="390"></text><text fill="#eeeeee" stroke="none" font-family="Arial" font-size="24px" font-style="normal" font-weight="normal" text-decoration="none" x="400" y="420"></text><text fill="#eeeeee" stroke="none" font-family="Arial" font-size="24px" font-style="normal" font-weight="normal" text-decoration="none" x="400" y="450"></text><text fill="#eeeeee" stroke="none" font-family="Arial" font-size="24px" font-style="normal" font-weight="normal" text-decoration="none" x="400" y="480"></text><text fill="#eeeeee" stroke="none" font-family="Arial" font-size="24px" font-style="normal" font-weight="normal" text-decoration="none" x="400" y="510"></text><text fill="#eeeeee" stroke="none" font-family="Arial" font-size="24px" font-style="normal" font-weight="normal" text-decoration="none" x="400" y="540"></text><text fill="#eeeeee" stroke="none" font-family="Arial" font-size="24px" font-style="normal" font-weight="normal" text-decoration="none" x="400" y="570"></text><text fill="#eeeeee" stroke="none" font-family="Arial" font-size="24px" font-style="normal" font-weight="normal" text-decoration="none" x="400" y="600"></text><text fill="#eeeeee" stroke="none" font-family="Arial" font-size="24px" font-style="normal" font-weight="normal" text-decoration="none" x="400" y="630"></text><text fill="#eeeeee" stroke="none" font-family="Arial" font-size="24px" font-style="normal" font-weight="normal" text-decoration="none" x="400" y="660"></text><text fill="#eeeeee" stroke="none" font-family="Arial" font-size="24px" font-style="normal" font-weight="normal" text-decoration="none" x="400" y="690"></text><text fill="#eeeeee" stroke="none" font-family="Arial" font-size="24px" font-style="normal" font-weight="normal" text-decoration="none" x="400" y="720"></text><text fill="#eeeeee" stroke="none" font-family="Arial" font-size="24px" font-style="normal" font-weight="normal" text-decoration="none" x="400" y="750"></text><text fill="#eeeeee" stroke="none" font-family="Arial" font-size="24px" font-style="normal" font-weight="normal" text-decoration="none" x="400" y="780"></text><text fill="#eeeeee" stroke="none" font-family="Arial" font-size="24px" font-style="normal" font-weight="normal" text-decoration="none" x="400" y="810"></text><text fill="#eeeeee" stroke="none" font-family="Arial" font-size="24px" font-style="normal" font-weight="normal" text-decoration="none" x="400" y="840"></text><text fill="#eeeeee" stroke="none" font-family="Arial" font-size="24px" font-style="normal" font-weight="normal" text-decoration="none" x="400" y="870"></text><text fill="#eeeeee" stroke="none" font-family="Arial" font-size="24px" font-style="normal" font-weight="normal" text-decoration="none" x="400" y="900"></text><text fill="#eeeeee" stroke="none" font-family="Arial" font-size="24px" font-style="normal" font-weight="normal" text-decoration="none" x="400" y="930"></text><text fill="#eeeeee" stroke="none" font-family="Arial" font-size="24px" font-style="normal" font-weight="normal" text-decoration="none" x="600" y="0"></text><text fill="#eeeeee" stroke="none" font-family="Arial" font-size="24px" font-style="normal" font-weight="normal" text-decoration="none" x="600" y="30"></text><text fill="#eeeeee" stroke="none" font-family="Arial" font-size="24px" font-style="normal" font-weight="normal" text-decoration="none" x="600" y="60"></text><text fill="#eeeeee" stroke="none" font-family="Arial" font-size="24px" font-style="normal" font-weight="normal" text-decoration="none" x="600" y="90"></text><text fill="#eeeeee" stroke="none" font-family="Arial" font-size="24px" font-style="normal" font-weight="normal" text-decoration="none" x="600" y="120"></text><text fill="#eeeeee" stroke="none" font-family="Arial" font-size="24px" font-style="normal" font-weight="normal" text-decoration="none" x="600" y="150"></text><text fill="#eeeeee" stroke="none" font-family="Arial" font-size="24px" font-style="normal" font-weight="normal" text-decoration="none" x="600" y="180"></text><text fill="#eeeeee" stroke="none" font-family="Arial" font-size="24px" font-style="normal" font-weight="normal" text-decoration="none" x="600" y="210"></text><text fill="#eeeeee" stroke="none" font-family="Arial" font-size="24px" font-style="normal" font-weight="normal" text-decoration="none" x="600" y="240"></text><text fill="#eeeeee" stroke="none" font-family="Arial" font-size="24px" font-style="normal" font-weight="normal" text-decoration="none" x="600" y="270"></text><text fill="#eeeeee" stroke="none" font-family="Arial" font-size="24px" font-style="normal" font-weight="normal" text-decoration="none" x="600" y="300"></text><text fill="#eeeeee" stroke="none" font-family="Arial" font-size="24px" font-style="normal" font-weight="normal" text-decoration="none" x="600" y="330"></text><text fill="#eeeeee" stroke="none" font-family="Arial" font-size="24px" font-style="normal" font-weight="normal" text-decoration="none" x="600" y="360"></text><text fill="#eeeeee" stroke="none" font-family="Arial" font-size="24px" font-style="normal" font-weight="normal" text-decoration="none" x="600" y="390"></text><text fill="#eeeeee" stroke="none" font-family="Arial" font-size="24px" font-style="normal" font-weight="normal" text-decoration="none" x="600" y="420"></text><text fill="#eeeeee" stroke="none" font-family="Arial" font-size="24px" font-style="normal" font-weight="normal" text-decoration="none" x="600" y="450"></text><text fill="#eeeeee" stroke="none" font-family="Arial" font-size="24px" font-style="normal" font-weight="normal" text-decoration="none" x="600" y="480"></text><text fill="#eeeeee" stroke="none" font-family="Arial" font-size="24px" font-style="normal" font-weight="normal" text-decoration="none" x="600" y="510"></text><text fill="#eeeeee" stroke="none" font-family="Arial" font-size="24px" font-style="normal" font-weight="normal" text-decoration="none" x="600" y="540"></text><text fill="#eeeeee" stroke="none" font-family="Arial" font-size="24px" font-style="normal" font-weight="normal" text-decoration="none" x="600" y="570"></text><text fill="#eeeeee" stroke="none" font-family="Arial" font-size="24px" font-style="normal" font-weight="normal" text-decoration="none" x="600" y="600"></text><text fill="#eeeeee" stroke="none" font-family="Arial" font-size="24px" font-style="normal" font-weight="normal" text-decoration="none" x="600" y="630"></text><text fill="#eeeeee" stroke="none" font-family="Arial" font-size="24px" font-style="normal" font-weight="normal" text-decoration="none" x="600" y="660"></text><text fill="#eeeeee" stroke="none" font-family="Arial" font-size="24px" font-style="normal" font-weight="normal" text-decoration="none" x="600" y="690"></text><text fill="#eeeeee" stroke="none" font-family="Arial" font-size="24px" font-style="normal" font-weight="normal" text-decoration="none" x="600" y="720"></text><text fill="#eeeeee" stroke="none" font-family="Arial" font-size="24px" font-style="normal" font-weight="normal" text-decoration="none" x="600" y="750"></text><text fill="#eeeeee" stroke="none" font-family="Arial" font-size="24px" font-style="normal" font-weight="normal" text-decoration="none" x="600" y="780"></text><text fill="#eeeeee" stroke="none" font-family="Arial" font-size="24px" font-style="normal" font-weight="normal" text-decoration="none" x="600" y="810"></text><text fill="#eeeeee" stroke="none" font-family="Arial" font-size="24px" font-style="normal" font-weight="normal" text-decoration="none" x="600" y="840"></text><text fill="#eeeeee" stroke="none" font-family="Arial" font-size="24px" font-style="normal" font-weight="normal" text-decoration="none" x="600" y="870"></text><text fill="#eeeeee" stroke="none" font-family="Arial" font-size="24px" font-style="normal" font-weight="normal" text-decoration="none" x="600" y="900"></text><text fill="#eeeeee" stroke="none" font-family="Arial" font-size="24px" font-style="normal" font-weight="normal" text-decoration="none" x="600" y="930"></text><text fill="#eeeeee" stroke="none" font-family="Arial" font-size="24px" font-style="normal" font-weight="normal" text-decoration="none" x="800" y="0"></text><text fill="#eeeeee" stroke="none" font-family="Arial" font-size="24px" font-style="normal" font-weight="normal" text-decoration="none" x="800" y="30"></text><text fill="#eeeeee" stroke="none" font-family="Arial" font-size="24px" font-style="normal" font-weight="normal" text-decoration="none" x="800" y="60"></text><text fill="#eeeeee" stroke="none" font-family="Arial" font-size="24px" font-style="normal" font-weight="normal" text-decoration="none" x="800" y="90"></text><text fill="#eeeeee" stroke="none" font-family="Arial" font-size="24px" font-style="normal" font-weight="normal" text-decoration="none" x="800" y="120"></text><text fill="#eeeeee" stroke="none" font-family="Arial" font-size="24px" font-style="normal" font-weight="normal" text-decoration="none" x="800" y="150"></text><text fill="#eeeeee" stroke="none" font-family="Arial" font-size="24px" font-style="normal" font-weight="normal" text-decoration="none" x="800" y="180"></text><text fill="#eeeeee" stroke="none" font-family="Arial" font-size="24px" font-style="normal" font-weight="normal" text-decoration="none" x="800" y="210"></text><text fill="#eeeeee" stroke="none" font-family="Arial" font-size="24px" font-style="normal" font-weight="normal" text-decoration="none" x="800" y="240"></text><text fill="#eeeeee" stroke="none" font-family="Arial" font-size="24px" font-style="normal" font-weight="normal" text-decoration="none" x="800" y="270"></text><text fill="#eeeeee" stroke="none" font-family="Arial" font-size="24px" font-style="normal" font-weight="normal" text-decoration="none" x="800" y="300"></text><text fill="#eeeeee" stroke="none" font-family="Arial" font-size="24px" font-style="normal" font-weight="normal" text-decoration="none" x="800" y="330"></text><text fill="#eeeeee" stroke="none" font-family="Arial" font-size="24px" font-style="normal" font-weight="normal" text-decoration="none" x="800" y="360"></text><text fill="#eeeeee" stroke="none" font-family="Arial" font-size="24px" font-style="normal" font-weight="normal" text-decoration="none" x="800" y="390"></text><text fill="#eeeeee" stroke="none" font-family="Arial" font-size="24px" font-style="normal" font-weight="normal" text-decoration="none" x="800" y="420"></text><text fill="#eeeeee" stroke="none" font-family="Arial" font-size="24px" font-style="normal" font-weight="normal" text-decoration="none" x="800" y="450"></text><text fill="#eeeeee" stroke="none" font-family="Arial" font-size="24px" font-style="normal" font-weight="normal" text-decoration="none" x="800" y="480"></text><text fill="#eeeeee" stroke="none" font-family="Arial" font-size="24px" font-style="normal" font-weight="normal" text-decoration="none" x="800" y="510"></text><text fill="#eeeeee" stroke="none" font-family="Arial" font-size="24px" font-style="normal" font-weight="normal" text-decoration="none" x="800" y="540"></text><text fill="#eeeeee" stroke="none" font-family="Arial" font-size="24px" font-style="normal" font-weight="normal" text-decoration="none" x="800" y="570"></text><text fill="#eeeeee" stroke="none" font-family="Arial" font-size="24px" font-style="normal" font-weight="normal" text-decoration="none" x="800" y="600"></text><text fill="#eeeeee" stroke="none" font-family="Arial" font-size="24px" font-style="normal" font-weight="normal" text-decoration="none" x="800" y="630"></text><text fill="#eeeeee" stroke="none" font-family="Arial" font-size="24px" font-style="normal" font-weight="normal" text-decoration="none" x="800" y="660"></text><text fill="#eeeeee" stroke="none" font-family="Arial" font-size="24px" font-style="normal" font-weight="normal" text-decoration="none" x="800" y="690"></text><text fill="#eeeeee" stroke="none" font-family="Arial" font-size="24px" font-style="normal" font-weight="normal" text-decoration="none" x="800" y="720"></text><text fill="#eeeeee" stroke="none" font-family="Arial" font-size="24px" font-style="normal" font-weight="normal" text-decoration="none" x="800" y="750"></text><text fill="#eeeeee" stroke="none" font-family="Arial" font-size="24px" font-style="normal" font-weight="normal" text-decoration="none" x="800" y="780"></text><text fill="#eeeeee" stroke="none" font-family="Arial" font-size="24px" font-style="normal" font-weight="normal" text-decoration="none" x="800" y="810"></text><text fill="#eeeeee" stroke="none" font-family="Arial" font-size="24px" font-style="normal" font-weight="normal" text-decoration="none" x="800" y="840"></text><text fill="#eeeeee" stroke="none" font-family="Arial" font-size="24px" font-style="normal" font-weight="normal" text-decoration="none" x="800" y="870"></text><text fill="#eeeeee" stroke="none" font-family="Arial" font-size="24px" font-style="normal" font-weight="normal" text-decoration="none" x="800" y="900"></text><text fill="#eeeeee" stroke="none" font-family="Arial" font-size="24px" font-style="normal" font-weight="normal" text-decoration="none" x="800" y="930"></text><text fill="#eeeeee" stroke="none" font-family="Arial" font-size="24px" font-style="normal" font-weight="normal" text-decoration="none" x="1000" y="0"></text><text fill="#eeeeee" stroke="none" font-family="Arial" font-size="24px" font-style="normal" font-weight="normal" text-decoration="none" x="1000" y="30"></text><text fill="#eeeeee" stroke="none" font-family="Arial" font-size="24px" font-style="normal" font-weight="normal" text-decoration="none" x="1000" y="60"></text><text fill="#eeeeee" stroke="none" font-family="Arial" font-size="24px" font-style="normal" font-weight="normal" text-decoration="none" x="1000" y="90"></text><text fill="#eeeeee" stroke="none" font-family="Arial" font-size="24px" font-style="normal" font-weight="normal" text-decoration="none" x="1000" y="120"></text><text fill="#eeeeee" stroke="none" font-family="Arial" font-size="24px" font-style="normal" font-weight="normal" text-decoration="none" x="1000" y="150"></text><text fill="#eeeeee" stroke="none" font-family="Arial" font-size="24px" font-style="normal" font-weight="normal" text-decoration="none" x="1000" y="180"></text><text fill="#eeeeee" stroke="none" font-family="Arial" font-size="24px" font-style="normal" font-weight="normal" text-decoration="none" x="1000" y="210"></text><text fill="#eeeeee" stroke="none" font-family="Arial" font-size="24px" font-style="normal" font-weight="normal" text-decoration="none" x="1000" y="240"></text><text fill="#eeeeee" stroke="none" font-family="Arial" font-size="24px" font-style="normal" font-weight="normal" text-decoration="none" x="1000" y="270"></text><text fill="#eeeeee" stroke="none" font-family="Arial" font-size="24px" font-style="normal" font-weight="normal" text-decoration="none" x="1000" y="300"></text><text fill="#eeeeee" stroke="none" font-family="Arial" font-size="24px" font-style="normal" font-weight="normal" text-decoration="none" x="1000" y="330"></text><text fill="#eeeeee" stroke="none" font-family="Arial" font-size="24px" font-style="normal" font-weight="normal" text-decoration="none" x="1000" y="360"></text><text fill="#eeeeee" stroke="none" font-family="Arial" font-size="24px" font-style="normal" font-weight="normal" text-decoration="none" x="1000" y="390"></text><text fill="#eeeeee" stroke="none" font-family="Arial" font-size="24px" font-style="normal" font-weight="normal" text-decoration="none" x="1000" y="420"></text><text fill="#eeeeee" stroke="none" font-family="Arial" font-size="24px" font-style="normal" font-weight="normal" text-decoration="none" x="1000" y="450"></text><text fill="#eeeeee" stroke="none" font-family="Arial" font-size="24px" font-style="normal" font-weight="normal" text-decoration="none" x="1000" y="480"></text><text fill="#eeeeee" stroke="none" font-family="Arial" font-size="24px" font-style="normal" font-weight="normal" text-decoration="none" x="1000" y="510"></text><text fill="#eeeeee" stroke="none" font-family="Arial" font-size="24px" font-style="normal" font-weight="normal" text-decoration="none" x="1000" y="540"></text><text fill="#eeeeee" stroke="none" font-family="Arial" font-size="24px" font-style="normal" font-weight="normal" text-decoration="none" x="1000" y="570"></text><text fill="#eeeeee" stroke="none" font-family="Arial" font-size="24px" font-style="normal" font-weight="normal" text-decoration="none" x="1000" y="600"></text><text fill="#eeeeee" stroke="none" font-family="Arial" font-size="24px" font-style="normal" font-weight="normal" text-decoration="none" x="1000" y="630"></text><text fill="#eeeeee" stroke="none" font-family="Arial" font-size="24px" font-style="normal" font-weight="normal" text-decoration="none" x="1000" y="660"></text><text fill="#eeeeee" stroke="none" font-family="Arial" font-size="24px" font-style="normal" font-weight="normal" text-decoration="none" x="1000" y="690"></text><text fill="#eeeeee" stroke="none" font-family="Arial" font-size="24px" font-style="normal" font-weight="normal" text-decoration="none" x="1000" y="720"></text><text fill="#eeeeee" stroke="none" font-family="Arial" font-size="24px" font-style="normal" font-weight="normal" text-decoration="none" x="1000" y="750"></text><text fill="#eeeeee" stroke="none" font-family="Arial" font-size="24px" font-style="normal" font-weight="normal" text-decoration="none" x="1000" y="780"></text><text fill="#eeeeee" stroke="none" font-family="Arial" font-size="24px" font-style="normal" font-weight="normal" text-decoration="none" x="1000" y="810"></text><text fill="#eeeeee" stroke="none" font-family="Arial" font-size="24px" font-style="normal" font-weight="normal" text-decoration="none" x="1000" y="840"></text><text fill="#eeeeee" stroke="none" font-family="Arial" font-size="24px" font-style="normal" font-weight="normal" text-decoration="none" x="1000" y="870"></text><text fill="#eeeeee" stroke="none" font-family="Arial" font-size="24px" font-style="normal" font-weight="normal" text-decoration="none" x="1000" y="900"></text><text fill="#eeeeee" stroke="none" font-family="Arial" font-size="24px" font-style="normal" font-weight="normal" text-decoration="none" x="1000" y="930"></text><g transform="translate(-310,-30) scale(1,1)"><rect fill="#C0C0C0" stroke="none" x="431" y="47" width="165.328125" height="39" opacity="0.2"/></g><g transform="translate(-310,-30) scale(1,1)"><rect fill="#840084" stroke="none" x="424" y="40" width="165.328125" height="39"/></g><g transform="translate(-310,-30) scale(1,1)"><path fill="none" stroke="#000000" d="M 424 40 L 589.328125 40 L 589.328125 79 L 424 79 L 424 40 Z Z" stroke-miterlimit="10"/></g><g transform="translate(-310,-30) scale(1,1)"><g><path fill="none" stroke="none"/><text fill="#ffffff" stroke="none" font-family="Arial" font-size="20px" font-style="normal" font-weight="bold" text-decoration="none" x="433.5" y="63.5">WooCommerce</text></g></g><g transform="translate(-310,-30) scale(1,1)"><path fill="none" stroke="#000000" d="M 507.5 80 L 507.5 968" stroke-miterlimit="10" stroke-dasharray="3"/></g><g transform="translate(-310,-30) scale(1,1)"><rect fill="#C0C0C0" stroke="none" x="823" y="47" width="122.369140625" height="39" opacity="0.2"/></g><g transform="translate(-310,-30) scale(1,1)"><rect fill="#ff0000" stroke="none" x="816" y="40" width="122.369140625" height="39"/></g><g transform="translate(-310,-30) scale(1,1)"><path fill="none" stroke="#000000" d="M 816 40 L 938.369140625 40 L 938.369140625 79 L 816 79 L 816 40 Z Z" stroke-miterlimit="10"/></g><g transform="translate(-310,-30) scale(1,1)"><g><path fill="none" stroke="none"/><text fill="#ffffff" stroke="none" font-family="Arial" font-size="20px" font-style="normal" font-weight="bold" text-decoration="none" x="825.5" y="64">Plateforme</text></g></g><g transform="translate(-310,-30) scale(1,1)"><path fill="none" stroke="#000000" d="M 878.5 80 L 878.5 960" stroke-miterlimit="10" stroke-dasharray="3"/></g><g transform="translate(-310,-30) scale(1,1)"><rect fill="#C0C0C0" stroke="none" x="1247" y="47" width="80.1123046875" height="39" opacity="0.2"/></g><g transform="translate(-310,-30) scale(1,1)"><rect fill="#2b2bff" stroke="none" x="1240" y="40" width="80.1123046875" height="39"/></g><g transform="translate(-310,-30) scale(1,1)"><path fill="none" stroke="#000000" d="M 1240 40 L 1320.1123046875 40 L 1320.1123046875 79 L 1240 79 L 1240 40 Z Z" stroke-miterlimit="10"/></g><g transform="translate(-310,-30) scale(1,1)"><g><path fill="none" stroke="none"/><text fill="#ffffff" stroke="none" font-family="Arial" font-size="22px" font-style="normal" font-weight="bold" text-decoration="none" x="1249.5" y="65.5">Cegid</text></g></g><g transform="translate(-310,-30) scale(1,1)"><path fill="none" stroke="#000000" d="M 1281.5 80 L 1281.5 968" stroke-miterlimit="10" stroke-dasharray="3"/></g><g transform="translate(-310,-30) scale(1,1)"><path fill="none" stroke="#000000" d="M 878 157 L 1274 157" stroke-miterlimit="10"/></g><g transform="translate(-310,-30) scale(1,1)"><path fill="#000000" stroke="none" d="M 1263.837325142376 161.209517756016 L 1274 157 L 1263.837325142376 152.790482243984"/></g><g transform="translate(-310,-30) scale(1,1)"><path fill="none" stroke="#000000" d="M 1263.837325142376 161.209517756016 L 1274 157 L 1263.837325142376 152.790482243984 L 1263.837325142376 161.209517756016" stroke-miterlimit="10"/></g><g transform="translate(-310,-30) scale(1,1)"><g><path fill="none" stroke="none"/><text fill="#000000" stroke="none" font-family="Arial" font-size="15px" font-style="normal" font-weight="normal" text-decoration="none" x="940.5" y="152.5">1 : Transactions des 5 dernières minutes</text></g></g><g transform="translate(-310,-30) scale(1,1)"><rect fill="#ffffff" stroke="none" x="1274" y="157" width="13" height="75"/></g><g transform="translate(-310,-30) scale(1,1)"><path fill="none" stroke="#000000" d="M 1274 157 L 1287 157 L 1287 232 L 1274 232 L 1274 157 Z Z" stroke-miterlimit="10"/></g><g transform="translate(-310,-30) scale(1,1)"><path fill="none" stroke="#000000" d="M 1274 224 L 884 224" stroke-miterlimit="10"/></g><g transform="translate(-310,-30) scale(1,1)"><path fill="#000000" stroke="none" d="M 894.1626748576241 219.790482243984 L 884 224 L 894.1626748576241 228.209517756016"/></g><g transform="translate(-310,-30) scale(1,1)"><path fill="none" stroke="#000000" d="M 894.1626748576241 219.790482243984 L 884 224 L 894.1626748576241 228.209517756016 L 894.1626748576241 219.790482243984" stroke-miterlimit="10"/></g><g transform="translate(-310,-30) scale(1,1)"><g><path fill="none" stroke="none"/><text fill="#0000ff" stroke="none" font-family="Arial" font-size="15px" font-style="normal" font-weight="normal" text-decoration="none" x="991.5" y="211.5">2 : Articles ayant changés</text></g></g><g transform="translate(-310,-30) scale(1,1)"><rect fill="#ffffff" stroke="none" x="871" y="224" width="13" height="424"/></g><g transform="translate(-310,-30) scale(1,1)"><path fill="none" stroke="#000000" d="M 871 224 L 884 224 L 884 648 L 871 648 L 871 224 Z Z" stroke-miterlimit="10"/></g><g transform="translate(-310,-30) scale(1,1)"><path fill="none" stroke="#000000" d="M 884 272 L 914 272 L 914 292 L 891 292" stroke-miterlimit="10"/></g><g transform="translate(-310,-30) scale(1,1)"><path fill="#000000" stroke="none" d="M 901.1626748576241 287.790482243984 L 891 292 L 901.1626748576241 296.209517756016"/></g><g transform="translate(-310,-30) scale(1,1)"><path fill="none" stroke="#000000" d="M 901.1626748576241 287.790482243984 L 891 292 L 901.1626748576241 296.209517756016 L 901.1626748576241 287.790482243984" stroke-miterlimit="10"/></g><g transform="translate(-310,-30) scale(1,1)"><g><path fill="none" stroke="none"/><text fill="#ff0000" stroke="none" font-family="Arial" font-size="15px" font-style="normal" font-weight="normal" text-decoration="none" x="918.5" y="284.5">3 : Vérifie si des articles de la plateforme ont changés</text></g></g><g transform="translate(-310,-30) scale(1,1)"><rect fill="#ffffff" stroke="none" x="878" y="292" width="13" height="28"/></g><g transform="translate(-310,-30) scale(1,1)"><path fill="none" stroke="#000000" d="M 878 292 L 891 292 L 891 320 L 878 320 L 878 292 Z Z" stroke-miterlimit="10"/></g><g transform="translate(-310,-30) scale(1,1)"><path fill="none" stroke="#000000" d="M 884 353 L 1274 353" stroke-miterlimit="10"/></g><g transform="translate(-310,-30) scale(1,1)"><path fill="#000000" stroke="none" d="M 1263.837325142376 357.209517756016 L 1274 353 L 1263.837325142376 348.790482243984"/></g><g transform="translate(-310,-30) scale(1,1)"><path fill="none" stroke="#000000" d="M 1263.837325142376 357.209517756016 L 1274 353 L 1263.837325142376 348.790482243984 L 1263.837325142376 357.209517756016" stroke-miterlimit="10"/></g><g transform="translate(-310,-30) scale(1,1)"><g><path fill="none" stroke="none"/><text fill="#000000" stroke="none" font-family="Arial" font-size="13px" font-style="normal" font-weight="normal" text-decoration="none" x="981.5" y="348">4 : Demande stock de ces articles</text></g></g><g transform="translate(-310,-30) scale(1,1)"><rect fill="#ffffff" stroke="none" x="1274" y="353" width="13" height="55"/></g><g transform="translate(-310,-30) scale(1,1)"><path fill="none" stroke="#000000" d="M 1274 353 L 1287 353 L 1287 408 L 1274 408 L 1274 353 Z Z" stroke-miterlimit="10"/></g><g transform="translate(-310,-30) scale(1,1)"><path fill="none" stroke="#000000" d="M 1274 400 L 884 400" stroke-miterlimit="10" stroke-dasharray="3"/></g><g transform="translate(-310,-30) scale(1,1)"><path fill="none" stroke="#000000" d="M 894.1626748576241 395.790482243984 L 884 400 L 894.1626748576241 404.209517756016" stroke-miterlimit="10"/></g><g transform="translate(-310,-30) scale(1,1)"><g><path fill="none" stroke="none"/><text fill="#000000" stroke="none" font-family="Arial" font-size="13px" font-style="normal" font-weight="normal" text-decoration="none" x="1025.5" y="415">5 : Nouveau stock</text></g></g><g transform="translate(-310,-30) scale(1,1)"><path fill="none" stroke="#000000" d="M 884 448 L 914 448 L 914 468 L 891 468" stroke-miterlimit="10"/></g><g transform="translate(-310,-30) scale(1,1)"><path fill="#000000" stroke="none" d="M 901.1626748576241 463.790482243984 L 891 468 L 901.1626748576241 472.209517756016"/></g><g transform="translate(-310,-30) scale(1,1)"><path fill="none" stroke="#000000" d="M 901.1626748576241 463.790482243984 L 891 468 L 901.1626748576241 472.209517756016 L 901.1626748576241 463.790482243984" stroke-miterlimit="10"/></g><g transform="translate(-310,-30) scale(1,1)"><g><path fill="none" stroke="none"/><text fill="#000000" stroke="none" font-family="Arial" font-size="16px" font-style="normal" font-weight="normal" text-decoration="none" x="933.5" y="467.5">6 : Update le stock sur la plateforme</text></g></g><g transform="translate(-310,-30) scale(1,1)"><rect fill="#ffffff" stroke="none" x="878" y="468" width="13" height="44"/></g><g transform="translate(-310,-30) scale(1,1)"><path fill="none" stroke="#000000" d="M 878 468 L 891 468 L 891 512 L 878 512 L 878 468 Z Z" stroke-miterlimit="10"/></g><g transform="translate(-310,-30) scale(1,1)"><path fill="none" stroke="#000000" d="M 884 544 L 914 544 L 914 564 L 891 564" stroke-miterlimit="10"/></g><g transform="translate(-310,-30) scale(1,1)"><path fill="#000000" stroke="none" d="M 901.1626748576241 559.790482243984 L 891 564 L 901.1626748576241 568.209517756016"/></g><g transform="translate(-310,-30) scale(1,1)"><path fill="none" stroke="#000000" d="M 901.1626748576241 559.790482243984 L 891 564 L 901.1626748576241 568.209517756016 L 901.1626748576241 559.790482243984" stroke-miterlimit="10"/></g><g transform="translate(-310,-30) scale(1,1)"><g><path fill="none" stroke="none"/><text fill="#840084" stroke="none" font-family="Arial" font-size="15px" font-style="normal" font-weight="normal" text-decoration="none" x="922.923828125" y="556.5">7 : Est ce que la disponibilité d`un article a changée</text></g></g><g transform="translate(-310,-30) scale(1,1)"><rect fill="#ffffff" stroke="none" x="878" y="564" width="13" height="28"/></g><g transform="translate(-310,-30) scale(1,1)"><path fill="none" stroke="#000000" d="M 878 564 L 891 564 L 891 592 L 878 592 L 878 564 Z Z" stroke-miterlimit="10"/></g><g transform="translate(-310,-30) scale(1,1)"><path fill="none" stroke="#000000" d="M 871 639 L 513 639" stroke-miterlimit="10"/></g><g transform="translate(-310,-30) scale(1,1)"><path fill="#000000" stroke="none" d="M 523.1626748576241 634.790482243984 L 513 639 L 523.1626748576241 643.209517756016"/></g><g transform="translate(-310,-30) scale(1,1)"><path fill="none" stroke="#000000" d="M 523.1626748576241 634.790482243984 L 513 639 L 523.1626748576241 643.209517756016 L 523.1626748576241 634.790482243984" stroke-miterlimit="10"/></g><g transform="translate(-310,-30) scale(1,1)"><g><path fill="none" stroke="none"/><text fill="#000000" stroke="none" font-family="Arial" font-size="15px" font-style="normal" font-weight="normal" text-decoration="none" x="524.5" y="654.5">8 : Changement du status des articles concernées</text></g></g><g transform="translate(-310,-30) scale(1,1)"><rect fill="#ffffff" stroke="none" x="500" y="639" width="13" height="177"/></g><g transform="translate(-310,-30) scale(1,1)"><path fill="none" stroke="#000000" d="M 500 639 L 513 639 L 513 816 L 500 816 L 500 639 Z Z" stroke-miterlimit="10"/></g><g transform="translate(-310,-30) scale(1,1)"><path fill="none" stroke="#000000" d="M 513 736 L 543 736 L 543 756 L 520 756" stroke-miterlimit="10"/></g><g transform="translate(-310,-30) scale(1,1)"><path fill="#000000" stroke="none" d="M 530.1626748576241 751.790482243984 L 520 756 L 530.1626748576241 760.209517756016"/></g><g transform="translate(-310,-30) scale(1,1)"><path fill="none" stroke="#000000" d="M 530.1626748576241 751.790482243984 L 520 756 L 530.1626748576241 760.209517756016 L 530.1626748576241 751.790482243984" stroke-miterlimit="10"/></g><g transform="translate(-310,-30) scale(1,1)"><g><path fill="none" stroke="none"/><text fill="#000000" stroke="none" font-family="Arial" font-size="20px" font-style="normal" font-weight="normal" text-decoration="none" x="525.5" y="784">9 : Modification de la disponibiltié de l`article</text></g></g><g transform="translate(-310,-30) scale(1,1)"><rect fill="#ffffff" stroke="none" x="507" y="756" width="13" height="44"/></g><g transform="translate(-310,-30) scale(1,1)"><path fill="none" stroke="#000000" d="M 507 756 L 520 756 L 520 800 L 507 800 L 507 756 Z Z" stroke-miterlimit="10"/></g><g transform="translate(-310,-30) scale(1,1)"><path fill="none" stroke="#000000" d="M 320 120 L 1416 120 L 1416 952 L 320 952 L 320 120" stroke-miterlimit="10"/></g><g transform="translate(-310,-30) scale(1,1)"><path fill="#ffffff" stroke="none" d="M 320 120 L 320 145 L 504.1015625 145 L 516.6015625 132.5 L 516.6015625 120 L 320 120"/></g><g transform="translate(-310,-30) scale(1,1)"><path fill="none" stroke="#000000" d="M 320 120 L 320 145 L 504.1015625 145 L 516.6015625 132.5 L 516.6015625 120 L 320 120 L 320 120" stroke-miterlimit="10"/></g><g transform="translate(-310,-30) scale(1,1)"><g><path fill="none" stroke="none"/><text fill="#000000" stroke="none" font-family="Arial" font-size="16px" font-style="normal" font-weight="normal" text-decoration="none" x="361.25" y="138.5">Toute les 5 minutes</text></g></g><g transform="translate(-310,-30) scale(1,1)"><g><path fill="none" stroke="none"/><text fill="#000000" stroke="none" font-family="Arial" font-size="16px" font-style="normal" font-weight="bold" text-decoration="none" x="323.2421875" y="138.5">loop</text></g></g><g transform="translate(-310,-30) scale(1,1)"><path fill="none" stroke="#ff0000" d="M 384 320 L 1384 320 L 1384 896 L 384 896 L 384 320" stroke-miterlimit="10"/></g><g transform="translate(-310,-30) scale(1,1)"><path fill="#ffffff" stroke="none" d="M 384 320 L 384 345 L 680.1640625 345 L 692.6640625 332.5 L 692.6640625 320 L 384 320"/></g><g transform="translate(-310,-30) scale(1,1)"><path fill="none" stroke="#ff0000" d="M 384 320 L 384 345 L 680.1640625 345 L 692.6640625 332.5 L 692.6640625 320 L 384 320 L 384 320" stroke-miterlimit="10"/></g><g transform="translate(-310,-30) scale(1,1)"><g><path fill="none" stroke="none"/><text fill="#000000" stroke="none" font-family="Arial" font-size="16px" font-style="normal" font-weight="normal" text-decoration="none" x="417.2421875" y="339">Un ou plusieurs articles ont changés</text></g></g><g transform="translate(-310,-30) scale(1,1)"><g><path fill="none" stroke="none"/><text fill="#000000" stroke="none" font-family="Arial" font-size="16px" font-style="normal" font-weight="bold" text-decoration="none" x="387.68359375" y="338">opt</text></g></g><g transform="translate(-310,-30) scale(1,1)"><path fill="none" stroke="#840084" d="M 432 584 L 960 584 L 960 840 L 432 840 L 432 584" stroke-miterlimit="10"/></g><g transform="translate(-310,-30) scale(1,1)"><path fill="#ffffff" stroke="none" d="M 432 584 L 432 606 L 623.322265625 606 L 634.322265625 595 L 634.322265625 584 L 432 584"/></g><g transform="translate(-310,-30) scale(1,1)"><path fill="none" stroke="#840084" d="M 432 584 L 432 606 L 623.322265625 606 L 634.322265625 595 L 634.322265625 584 L 432 584 L 432 584" stroke-miterlimit="10"/></g><g transform="translate(-310,-30) scale(1,1)"><g><path fill="none" stroke="none"/><text fill="#000000" stroke="none" font-family="Arial" font-size="13px" font-style="normal" font-weight="normal" text-decoration="none" x="461.07177734375" y="600">Mise à jour WooCommerce</text></g></g><g transform="translate(-310,-30) scale(1,1)"><g><path fill="none" stroke="none"/><text fill="#000000" stroke="none" font-family="Arial" font-size="13px" font-style="normal" font-weight="bold" text-decoration="none" x="435.930419921875" y="599.5">opt</text></g></g></g></svg>